<svg xmlns="http://www.w3.org/2000/svg" fill="none" viewBox="0 0 83 83" aria-hidden="true">
  <title>VAIT</title>
  <rect width="83" height="83" rx="16" fill="#4A4A4A" />
  <path
    fill="#F5C518"
    d="M18.4318 42.9167L19.0834 45.4718L21.5057 44.3835L19.8959 46.4814L22.2649 47.6794L19.6059 47.7403L20.1377 50.3225L18.4318 48.3006L16.7258 50.3225L17.2576 47.7403L14.5986 47.6794L16.9676 46.4814L15.3578 44.3835L17.7801 45.4718L18.4318 42.9167Z"
  />
  <path
    fill="#F5C518"
    d="M39.4825 25.3213C40.2672 24.5439 41.5387 24.5439 42.3234 25.3213L42.9366 25.9287C43.7211 26.7062 43.7212 27.9667 42.9366 28.7442L31.2677 40.3057C31.2248 40.3578 31.179 40.4085 31.13 40.4571L30.4952 41.085C30.2943 41.2841 30.0611 41.4312 29.8126 41.5283C29.086 41.8225 28.2207 41.6782 27.631 41.0938L27.0187 40.4864C26.9498 40.4181 26.8889 40.3445 26.8321 40.2696L15.3282 28.8721C14.5441 28.0946 14.5438 26.834 15.3282 26.0567L15.963 25.4287C16.7476 24.6514 18.0192 24.6515 18.8038 25.4287L29.089 35.6192L39.4825 25.3213Z"
  />
  <path
    fill="#F5C518"
    d="M44.5175 57.6787C43.7328 58.4561 42.4613 58.4561 41.6766 57.6787L41.0634 57.0713C40.2789 56.2938 40.2788 55.0332 41.0634 54.2558L52.7323 42.6943C52.7752 42.6422 52.821 42.5915 52.87 42.5429L53.5048 41.915C53.7057 41.7159 53.9389 41.5688 54.1874 41.4717C54.914 41.1775 55.7793 41.3218 56.369 41.9062L56.9813 42.5136C57.0502 42.5819 57.1111 42.6555 57.1679 42.7304L68.6718 54.1279C69.4559 54.9054 69.4562 56.166 68.6718 56.9433L68.037 57.5713C67.2524 58.3486 65.9808 58.3485 65.1962 57.5713L54.911 47.3808L44.5175 57.6787Z"
  />
  <path
    fill="white"
    d="M38.6105 41.6129C39.3951 40.8355 40.6677 40.8355 41.4523 41.6129L42.0656 42.2204C42.8499 42.9978 42.8501 44.2584 42.0656 45.0358L30.3966 56.5973C30.3536 56.6495 30.3071 56.7 30.2579 56.7487L29.6242 57.3766C29.4244 57.5746 29.1923 57.7209 28.9454 57.818C28.218 58.1145 27.3508 57.9709 26.7599 57.3854L26.1466 56.778C26.0791 56.711 26.0199 56.6386 25.964 56.5651L22.4767 53.111C21.6922 52.3336 21.6924 51.073 22.4767 50.2956L23.1115 49.6666C23.896 48.8895 25.1677 48.8895 25.9523 49.6666L28.2169 51.9108L38.6105 41.6129Z"
  />
  <path
    fill="white"
    d="M46.663 41.3871C45.8783 42.1645 44.6058 42.1645 43.8212 41.3871L43.2079 40.7796C42.4235 40.0022 42.4233 38.7416 43.2079 37.9642L54.8768 26.4027C54.9198 26.3505 54.9664 26.3 55.0155 26.2513L55.6493 25.6234C55.8491 25.4254 56.0811 25.2791 56.328 25.182C57.0554 24.8855 57.9226 25.0291 58.5135 25.6146L59.1268 26.222C59.1944 26.289 59.2535 26.3614 59.3094 26.4349L62.7967 29.889C63.5812 30.6664 63.581 31.927 62.7967 32.7044L62.162 33.3334C61.3774 34.1105 60.1057 34.1105 59.3212 33.3334L57.0565 31.0892L46.663 41.3871Z"
  />
</svg>
